# xmcd
#
# Track frame offsets: 
#        150
#        12918
#        32327
#        53935
#        71864
#        87897
#        102234
#        116411
#        131940
#        155206
#        178828
#        207369
#        226192
#
# Disc length: 3186 seconds
#
# Revision: 4
# Processed by: cddbd v1.5.2PL0 Copyright (c) Steve Scherf et al.
# Submitted via: ExactAudioCopyFreeDBPlugin 1.0
#
DISCID=b30c700d
DTITLE=Ruthie Foster - Let It Burn
DYEAR=2012
DGENRE=Blues
TTITLE0=Welcome Home (with The Blind Boys Of Alabama)
TTITLE1=Set Fire To The Rain
TTITLE2=This Time
TTITLE3=You Don't Miss Your Water (with William Bell)
TTITLE4=Everlasting Light
TTITLE5=Lord Remember Me (with The Blind Boys Of Alabama)
TTITLE6=Ring Of Fire
TTITLE7=Aim For The Heart
TTITLE8=It Makes No Difference
TTITLE9=Long Time Gone (with The Blind Boys Of Alabama)
TTITLE10=Don't Wan't To Know
TTITLE11=If I Had A Hammer
TTITLE12=The Titanic (with The Blind Boys Of Alabama)
EXTD=
EXTT0=
EXTT1=
EXTT2=
EXTT3=
EXTT4=
EXTT5=
EXTT6=
EXTT7=
EXTT8=
EXTT9=
EXTT10=
EXTT11=
EXTT12=
PLAYORDER=
